<mxfile host="app.diagrams.net" modified="2022-03-06T12:31:46.595Z" agent="5.0 (X11; Linux x86_64) AppleWebKit/537.36 (KHTML, like Gecko) Chrome/96.0.4664.45 Safari/537.36" etag="VtRttyiq2WAIxFArRtXh" version="16.6.5" type="github">
  <diagram id="iLP0MtfMf6pDIMpZBGMK" name="Page-1">
    <mxGraphModel dx="1129" dy="-525" grid="1" gridSize="10" guides="1" tooltips="1" connect="1" arrows="1" fold="1" page="1" pageScale="1" pageWidth="827" pageHeight="1169" math="0" shadow="0">
      <root>
        <mxCell id="0" />
        <mxCell id="1" parent="0" />
        <mxCell id="jGuOPp-j0JkBWJhZ89WV-1" value="" style="edgeStyle=orthogonalEdgeStyle;rounded=0;orthogonalLoop=1;jettySize=auto;html=1;entryX=0;entryY=0;entryDx=0;entryDy=0;" edge="1" parent="1" source="jGuOPp-j0JkBWJhZ89WV-2" target="jGuOPp-j0JkBWJhZ89WV-6">
          <mxGeometry relative="1" as="geometry" />
        </mxCell>
        <mxCell id="jGuOPp-j0JkBWJhZ89WV-2" value="共享内存的组成" style="text;html=1;strokeColor=#2D7600;fillColor=#60a917;align=center;verticalAlign=middle;whiteSpace=wrap;rounded=0;fontColor=#ffffff;" vertex="1" parent="1">
          <mxGeometry x="344" y="1689" width="140" height="30" as="geometry" />
        </mxCell>
        <mxCell id="jGuOPp-j0JkBWJhZ89WV-3" value="" style="rounded=1;whiteSpace=wrap;html=1;fillColor=#60a917;fontColor=#ffffff;strokeColor=#2D7600;" vertex="1" parent="1">
          <mxGeometry x="154" y="1749" width="520" height="70" as="geometry" />
        </mxCell>
        <mxCell id="jGuOPp-j0JkBWJhZ89WV-4" value="PidSet:&lt;br&gt;&lt;span style=&quot;text-align: left&quot;&gt;记录所有使用这个&lt;/span&gt;&lt;br style=&quot;text-align: left&quot;&gt;&lt;span style=&quot;text-align: left&quot;&gt;topic的进程&lt;/span&gt;" style="rounded=1;whiteSpace=wrap;html=1;fillColor=#0050ef;fontColor=#ffffff;strokeColor=#001DBC;" vertex="1" parent="1">
          <mxGeometry x="154" y="1749" width="120" height="70" as="geometry" />
        </mxCell>
        <mxCell id="jGuOPp-j0JkBWJhZ89WV-5" value="SharedQueue:&lt;br&gt;&lt;div style=&quot;text-align: left&quot;&gt;1. 记录当前每个&lt;/div&gt;&lt;span style=&quot;text-align: left&quot;&gt;元素在共享内存&lt;br&gt;allocator的位置&lt;/span&gt;&lt;br style=&quot;text-align: left&quot;&gt;&lt;span style=&quot;text-align: left&quot;&gt;2. 记录写入次数&lt;br&gt;&lt;/span&gt;" style="rounded=1;whiteSpace=wrap;html=1;fillColor=#d80073;fontColor=#ffffff;strokeColor=#A50040;" vertex="1" parent="1">
          <mxGeometry x="284" y="1749" width="120" height="70" as="geometry" />
        </mxCell>
        <mxCell id="jGuOPp-j0JkBWJhZ89WV-6" value="allocator:&lt;br&gt;针对BufferSize进行内存地址管理，负责分配和查询" style="rounded=1;whiteSpace=wrap;html=1;fillColor=#a20025;fontColor=#ffffff;strokeColor=#6F0000;" vertex="1" parent="1">
          <mxGeometry x="414" y="1749" width="120" height="70" as="geometry" />
        </mxCell>
        <mxCell id="jGuOPp-j0JkBWJhZ89WV-7" value="BufferSize：&lt;br&gt;实际存储元素的空间，默认256MB" style="rounded=1;whiteSpace=wrap;html=1;fillColor=#1ba1e2;fontColor=#ffffff;strokeColor=#006EAF;" vertex="1" parent="1">
          <mxGeometry x="544" y="1749" width="120" height="70" as="geometry" />
        </mxCell>
      </root>
    </mxGraphModel>
  </diagram>
</mxfile>
